PathFileType	4	(X/Y/Z)	C:\Users\°ÂÌØÂü\Desktop\20210112\bx_y_5_901-Unnamed.trc
DataRate	CameraRate	NumFrames	NumMarkers	Units	OrigDataRate	OrigDataStartFrame	OrigNumFrames
50.00	50.00	       4	0	mm	50.00	66	       527
Frame#	Time	
		

66	1.300	-614.56464	-59.38604	1549.43152	-642.64148	289.02795	1536.17822	-571.71088	111.40736	1405.75989	-672.00128	-0.81679	1043.95825	-660.68634	221.03552	1059.84778	-716.53119	288.47845	877.27454	-658.82135	-1.55220	808.97009	-659.55273	219.49432	827.89014	-755.82922	281.80423	745.27832	-773.76917	254.05040	633.49902	-725.64252	-61.95294	856.58618	-731.26886	146.46454	574.43634	-698.92554	20.90962	524.00262	-769.60809	249.00151	572.85529	-711.60388	207.55327	535.62952	-804.14825	258.70975	497.15509	-718.63300	77.02119	217.58972	-665.82758	-67.13516	162.89424	-712.93793	155.58467	218.67732	-624.64490	-77.94162	160.30075	-772.71625	224.72353	203.07152	-882.48291	295.99615	144.56113	-675.43024	55.60062	159.07607	-563.12646	-42.96735	164.03276	-603.49823	18.84756	167.50981	-675.94366	173.78766	159.12839	-517.88275	-72.92165	142.91975	-595.58466	225.02022	175.42442	-667.03754	299.88409	159.34917	-629.52679	308.07166	161.54169	-562.22198	263.48999	166.32881	-528.02271	303.75531	146.18533	-443.66064	121.82354	1785.35986	-796.54120	174.22513	182.88895	-870.27490	104.91094	1060.55225	-795.49200	55.51398	173.89540	-793.68579	-32.58961	484.21790	-769.21021	-6.78887	205.03694	-875.97748	-78.88188	141.21204	-742.15411	-49.44104	703.35944	-746.20630	-24.69444	613.61194	-752.48358	-22.30701	566.75519				-727.55975	83.65746	572.34271	
67	1.320	-606.76825	-59.54905	1546.26270	-635.20020	288.58304	1533.72119				-675.40210	-0.38397	1043.27649	-665.13617	221.22273	1058.35950	-720.96179	288.51001	876.89154	-662.28638	-1.27451	809.15369	-663.60461	219.37213	828.14594	-758.96918	282.32794	744.85986	-776.24677	254.98906	633.68207	-729.32135	-61.95565	857.18451	-733.04321	146.33597	574.64471	-700.10962	20.82987	523.70923	-771.59204	249.00772	572.35016	-713.29144	207.59372	535.98077	-805.96924	258.41724	496.31308	-718.80042	76.72343	217.36591	-665.80225	-67.22543	162.83716				-624.76923	-78.00903	160.27760	-773.01501	224.87691	203.15828	-882.71362	296.26294	144.75905	-675.35596	55.65577	159.40857	-563.26508	-42.80623	164.17659	-603.79749	18.67846	167.90108	-676.07129	173.81857	159.21211	-518.05573	-73.05005	142.75002	-595.50134	225.25259	175.87125	-667.14709	299.89145	159.14560	-629.65277	308.32336	161.32610	-562.37769	263.48569	166.26579	-528.04010	303.71863	146.45247	-431.45001	120.28944	1777.95703	-796.53174	174.23727	182.81464	-873.84418	105.15444	1061.47266	-795.20160	55.66529	173.75082	-794.81177	-32.31948	484.29425	-769.34033	-6.79954	205.10652	-875.65533	-78.94249	141.29453	-744.75464	-49.35614	703.15198	-747.50586	-24.45773	613.55908	-754.30243	-21.70492	566.30042	-569.17438	110.93628	1401.62891	-728.73236	84.07803	572.60327	-712.86737	155.71057	218.49113	
68	1.340	-598.65802	-58.83515	1542.27905	-627.38190	288.04825	1530.46472	-673.23792	220.52264	1056.06274	-679.68744	-0.16094	1042.65417				-726.02466	288.76462	876.79950	-666.18024	-0.74998	809.11798	-668.49561	219.61887	828.40839	-763.23663	282.97806	744.58838	-779.24146	254.63055	632.67627	-733.05969	-61.99704	857.14490	-735.46124	146.97981	573.99329	-701.64246	20.75299	524.32233	-773.83734	248.80959	572.12170	-715.16016	207.92784	535.96118	-807.57111	258.60715	496.07916	-719.00812	76.62965	217.25584	-665.82324	-67.32935	162.62976	-747.77344	-50.49982	702.78802	-624.98987	-77.94978	160.05418	-772.97772	225.04848	202.92155	-882.63727	296.20770	144.69885	-675.60516	55.39162	159.43913	-563.40576	-42.78492	164.16547	-604.13531	18.58733	167.99588	-675.93640	173.85506	159.41624	-518.04907	-73.12605	143.06979	-595.74023	225.31355	175.94954	-667.09070	299.99918	159.27835	-629.63574	308.26935	161.37289	-562.43256	263.55667	166.21358	-528.07928	303.84964	146.42789	-418.81140	119.50727	1769.91565	-796.59534	174.38417	182.73932	-877.20026	104.76664	1062.23987	-795.72583	55.08828	173.66566	-795.62561	-31.89114	483.85165	-769.61371	-6.98600	205.25645	-875.96283	-79.04760	141.00154				-749.53430	-24.22354	613.70667	-756.28186	-21.86053	566.31061	-564.49237	110.47660	1396.76062	-730.38641	83.92935	572.53345	-713.38831	156.23843	219.00676	
69	1.360	-590.08447	-58.75856	1538.29834	-618.81451	287.53275	1526.64905				-684.15570	0.30304	1041.98999				-731.04602	289.03156	875.95990	-669.92468	-0.62956	809.53003	-673.45917	219.94070	828.60205	-766.93561	283.86353	744.63043	-781.88391	255.01285	632.19049	-736.89264	-61.11908	856.60980	-737.35754	147.24460	574.11444	-703.29456	21.18649	524.46521	-776.40234	249.11971	571.61713	-717.06158	208.27812	535.80048	-809.64276	258.55173	495.59570	-719.25061	76.60464	217.53903	-666.02136	-67.47118	162.42744				-624.98279	-77.85143	159.92798	-773.45331	225.39572	202.83902	-882.50470	296.02646	144.50813	-675.65460	55.13260	159.73959	-563.49829	-42.60573	164.20158	-604.32355	18.39869	167.87927	-675.78033	173.89841	159.81422	-518.07574	-73.12547	142.84854	-595.87537	225.51382	175.97667	-667.22003	300.21423	159.19930	-629.63574	308.26935	161.37289	-562.43256	263.55667	166.21358	-528.00244	303.73724	146.43678	-406.52567	118.38866	1761.07532	-796.72498	174.19478	182.45912	-882.61322	105.29420	1063.24341	-795.73047	54.93723	173.54808	-797.53357	-31.80487	483.54355	-770.00275	-6.95916	204.96370	-875.74500	-78.72310	141.48335				-752.24133	-23.86610	613.54944	-758.37000	-21.63407	566.10175	-560.27820	109.83028	1391.44885	-732.77399	83.86551	572.11316	-713.27661	156.42548	218.93269	
